<svg class="getdown-logo-svg" xmlns="http://www.w3.org/2000/svg" width="160" height="38">
	<path fill="#E9F3FF" d="M0,24.41v-0.08c0-7.64,5.95-13.9,14.09-13.9c4.07,0,6.76,0.92,9.18,2.61c0.58,0.42,1.23,1.23,1.23,2.38
	c0,1.61-1.31,2.92-2.92,2.92c-0.84,0-1.38-0.31-1.8-0.61c-1.61-1.15-3.34-1.84-5.88-1.84c-4.3,0-7.72,3.8-7.72,8.37v0.08
	c0,4.92,3.38,8.53,8.14,8.53c2.15,0,4.07-0.54,5.57-1.61v-3.84H15.9c-1.42,0-2.57-1.11-2.57-2.53s1.15-2.57,2.57-2.57h6.76
	c1.65,0,2.96,1.31,2.96,2.96v6.53c0,1.73-0.65,2.92-2.07,3.76c-2.19,1.34-5.38,2.69-9.41,2.69C5.76,38.23,0,32.36,0,24.41z
	 M38.3,38.23c-6.18,0-10.75-4.34-10.75-10.64v-0.08c0-5.88,4.19-10.71,10.18-10.71c6.87,0,9.91,5.64,9.91,9.91
	c0,1.69-1.19,2.8-2.73,2.8H33.34c0.58,2.65,2.42,4.03,5.03,4.03c1.61,0,2.96-0.5,4.15-1.38c0.42-0.31,0.81-0.46,1.42-0.46
	c1.31,0,2.27,1,2.27,2.3c0,0.77-0.35,1.34-0.77,1.73C43.64,37.27,41.29,38.23,38.3,38.23z M42.06,25.87
	c-0.35-2.61-1.88-4.38-4.34-4.38c-2.42,0-3.99,1.73-4.45,4.38C33.27,25.87,42.06,25.87,42.06,25.87z M50.9,31.94v-9.75h-0.19
	c-1.38,0-2.5-1.11-2.5-2.5c0-1.38,1.11-2.5,2.5-2.5h0.19v-2.57c0-1.61,1.31-2.92,2.92-2.92c1.61,0,2.92,1.31,2.92,2.92v2.57h2.57
	c1.38,0,2.5,1.11,2.5,2.5c0,1.38-1.11,2.5-2.5,2.5h-2.57v8.79c0,1.34,0.58,2,1.88,2c0.19,0,0.58-0.04,0.69-0.04
	c1.31,0,2.42,1.08,2.42,2.42c0,1.04-0.69,1.88-1.5,2.19c-1.08,0.42-2.07,0.58-3.34,0.58C53.32,38.12,50.9,36.7,50.9,31.94z
	 M85.95,27.6v-0.08c0-5.91,4.76-10.71,11.17-10.71c6.37,0,11.1,4.72,11.1,10.64v0.08c0,5.91-4.76,10.71-11.17,10.71
	C90.67,38.23,85.95,33.51,85.95,27.6z M102.46,27.6v-0.08c0-3.03-2.19-5.68-5.41-5.68c-3.34,0-5.34,2.57-5.34,5.61v0.08
	c0,3.03,2.19,5.68,5.41,5.68C100.46,33.2,102.46,30.63,102.46,27.6z M113.83,35.55l-5.03-14.52c-0.12-0.35-0.27-0.92-0.27-1.42
	c0-1.34,1.08-2.65,2.8-2.65c1.46,0,2.42,0.92,2.84,2.27l3.15,10.45l3.23-10.41c0.42-1.38,1.5-2.34,3-2.34h0.35
	c1.5,0,2.57,0.96,3,2.34l3.26,10.45l3.23-10.52c0.38-1.23,1.27-2.23,2.8-2.23c1.61,0,2.73,1.23,2.73,2.69
	c0,0.38-0.12,0.92-0.19,1.19l-5.18,14.71c-0.61,1.8-1.8,2.61-3.23,2.61h-0.19c-1.42,0-2.61-0.81-3.15-2.5l-3.26-10.37l-3.3,10.37
	c-0.54,1.69-1.73,2.5-3.15,2.5h-0.19C115.63,38.16,114.44,37.35,113.83,35.55z M141.15,19.88c0-1.61,1.31-2.92,2.92-2.92
	s2.92,1.31,2.92,2.92v0.23c1.34-1.73,3.07-3.3,6.03-3.3c4.42,0,6.99,2.92,6.99,7.64v10.64c0,1.61-1.31,2.92-2.92,2.92
	s-2.92-1.31-2.92-2.92V26.3c0-2.76-1.31-4.19-3.53-4.19c-2.23,0-3.65,1.42-3.65,4.19v8.79c0,1.61-1.31,2.92-2.92,2.92
	s-2.92-1.31-2.92-2.92L141.15,19.88L141.15,19.88z M106.36,8.04c-0.68-1.48-2.43-2.13-3.91-1.45C93.8,10.55,86.53,7.28,83.9,3.57
	c-0.45-1.06-1.51-1.8-2.73-1.8c-1.61,0-2.95,1.31-2.95,2.92v13.33l0,0c-2-0.77-3.11-1.21-5.04-1.21c-6.41,0-10.96,4.8-10.96,10.71
	v0.08c0,5.91,4.59,10.64,10.96,10.64c6.41,0,11.04-4.8,11.04-10.71v-0.08c0-0.02,0-0.05,0-0.07c0-0.01,0-0.02,0-0.03V11.61
	c2,1.2,4.37,2.02,6.97,2.39c1.06,0.15,2.12,0.22,3.22,0.22c3.59,0,7.28-0.78,10.51-2.27C106.39,11.27,107.03,9.52,106.36,8.04z
	 M78.22,27.6c0,3.03-2.12,5.61-5.46,5.61c-3.23,0-5.54-2.65-5.54-5.68v-0.08c0-3.03,2.12-5.61,5.46-5.61c3.23,0,5.54,2.65,5.54,5.68
	V27.6z"/>
</svg>
